<svg width="512" height="126" viewBox="0 0 512 126" fill="none" xmlns="http://www.w3.org/2000/svg">
<path d="M46.9272 125.08C39.0762 125.08 31.5227 124.009 24.2665 121.868C17.1293 119.608 11.3006 116.515 6.78035 112.589C2.26012 108.545 0 103.965 0 98.8504C0 93.9733 1.48692 90.1073 4.46076 87.2524C7.43459 84.3975 11.1816 82.9701 15.7019 82.9701C18.6757 82.9701 21.2332 83.3864 23.3744 84.2191C25.6345 84.9328 28.073 86.0034 30.69 87.4308C32.5933 88.3825 34.1991 89.1557 35.5076 89.7504C36.9351 90.2262 38.422 90.4641 39.9684 90.4641C43.8938 90.4641 45.8566 88.9177 45.8566 85.825C45.8566 84.6354 45.0239 83.6243 43.3585 82.7916C41.6932 81.84 38.8978 80.591 34.9723 79.0446C27.9541 76.3087 22.2443 73.6322 17.843 71.0152C11.0627 66.9708 6.36401 62.5695 3.74704 57.8114C1.24901 53.0533 0 47.1056 0 39.9684C0 33.0691 2.20064 26.5861 6.60192 20.5195C11.0032 14.3339 17.0104 9.39733 24.6234 5.70977C32.2364 2.02221 40.5631 0.178426 49.6036 0.178426C58.4062 0.178426 66.4355 1.54639 73.6917 4.28232C81.0668 6.8993 86.836 10.5869 90.9994 15.345C95.2817 19.9842 97.4229 25.1587 97.4229 30.8684C97.4229 37.4109 95.4602 42.3474 91.5347 45.6781C87.7282 48.8899 83.4459 50.4958 78.6877 50.4958C74.7623 50.4958 71.7884 50.2579 69.7662 49.782C67.863 49.3062 65.9597 48.652 64.0565 47.8193C62.5101 47.2245 61.2016 46.8082 60.131 46.5703C59.0604 46.2134 57.5735 46.035 55.6702 46.035C54.1238 46.035 52.6369 46.5703 51.2095 47.6409C49.901 48.5925 49.2468 49.9605 49.2468 51.7448C49.2468 53.0533 50.0199 54.1833 51.5663 55.1349C53.1127 55.9676 54.897 56.7408 56.9192 57.4546C58.9415 58.1683 60.3689 58.7036 61.2016 59.0604C72.2642 63.1048 80.4126 67.744 85.6465 72.978C90.8805 78.093 93.4974 84.7544 93.4974 92.9622C93.4974 103.073 89.3935 110.984 81.1858 116.693C73.0969 122.284 61.6774 125.08 46.9272 125.08Z" fill="white"/>
<path d="M125.156 124.901C119.328 124.901 114.569 121.333 110.882 114.195C107.313 107.058 104.756 98.434 103.209 88.323C101.663 78.2119 100.89 68.4577 100.89 59.0604C100.89 43.7154 103.328 30.0952 108.205 18.1999C113.201 6.18558 121.528 0.178426 133.186 0.178426C138.301 0.178426 142.761 2.14116 146.568 6.06663C150.493 9.9921 153.884 15.1071 156.738 21.4116C159.593 27.5972 163.043 36.2214 167.087 47.284L170.121 55.6702C169.883 51.15 169.764 47.8193 169.764 45.6781C169.764 31.7606 171.608 20.6979 175.295 12.4901C179.102 4.28233 185.109 0.178426 193.317 0.178426C203.19 0.178426 209.97 6.06663 213.658 17.843C217.345 29.5005 219.189 43.2396 219.189 59.0604C219.189 68.4577 217.999 78.2119 215.62 88.323C213.36 98.434 209.494 107.058 204.022 114.195C198.551 121.333 191.413 124.901 182.611 124.901C177.258 124.901 172.559 122.998 168.515 119.191C164.589 115.266 161.259 110.448 158.523 104.739C155.906 99.0288 152.753 91.1779 149.066 81.1858C147.163 75.9518 145.676 72.0264 144.605 69.4094L144.784 83.8622C144.784 93.2595 144.308 100.873 143.356 106.701C142.405 112.411 140.501 116.872 137.646 120.084C134.91 123.295 130.747 124.901 125.156 124.901Z" fill="white"/>
<path d="M254.184 125.258C246.214 125.258 239.79 121.392 234.913 113.66C230.155 105.809 227.36 95.2223 226.527 81.8995C226.408 79.9962 226.349 77.2008 226.349 73.5133C226.349 59.1199 228.728 46.3919 233.486 35.3292C238.244 24.1476 244.965 15.5234 253.648 9.45681C262.451 3.27122 272.681 0.178426 284.338 0.178426C295.996 0.178426 306.166 3.27122 314.85 9.45681C323.652 15.5234 330.373 24.0881 335.013 35.1508C339.771 46.2134 342.15 59.0009 342.15 73.5133C342.15 77.2008 342.09 79.9962 341.971 81.8995C341.139 95.4602 338.343 106.047 333.585 113.66C328.827 121.273 322.403 125.08 314.315 125.08C307.772 125.08 303.192 123.295 300.575 119.727C298.077 116.158 296.828 111.816 296.828 106.701C296.828 104.322 297.007 102.241 297.364 100.456C291.178 100.694 285.706 100.813 280.948 100.813C277.974 100.813 274.703 100.694 271.135 100.456C271.491 102.241 271.67 104.322 271.67 106.701C271.67 111.935 270.361 116.337 267.744 119.905C265.246 123.474 260.726 125.258 254.184 125.258ZM269.885 68.6956C276.309 68.4577 281.008 68.3388 283.981 68.3388C287.193 68.3388 291.892 68.4577 298.077 68.6956C298.315 67.3872 298.434 65.4244 298.434 62.8074C298.434 57.2166 297.245 52.6964 294.866 49.2468C292.487 45.6781 288.799 43.8938 283.803 43.8938C278.926 43.8938 275.298 45.6187 272.919 49.0683C270.54 52.518 269.35 56.9787 269.35 62.4506C269.35 64.4728 269.529 66.5545 269.885 68.6956Z" fill="white"/>
<path d="M417.665 63.6996C428.252 68.5767 437.233 74.4649 444.608 81.3642C452.102 88.2635 455.849 95.7576 455.849 103.846C455.849 110.984 453.886 116.277 449.961 119.727C446.035 123.176 441.218 124.901 435.508 124.901C427.3 124.901 419.568 121.154 412.312 113.66C405.175 106.047 398.275 96.1144 391.614 83.8622C391.614 92.3079 391.138 99.3857 390.186 105.095C389.354 110.805 387.451 115.563 384.477 119.37C381.503 123.057 377.042 124.901 371.094 124.901C364.909 124.901 360.329 122.582 357.355 117.942C354.5 113.303 352.716 107.712 352.002 101.17C351.408 94.6275 351.11 86.0629 351.11 75.476C351.11 67.9819 351.17 59.1199 351.289 48.8899C351.527 38.5409 351.765 32.1174 352.002 29.6194C352.24 20.6979 354.084 13.5607 357.534 8.20779C360.983 2.73593 365.86 0 372.165 0C379.421 0 384.477 3.09279 387.332 9.27838C390.305 15.464 391.792 24.9208 391.792 37.6488V43.0017C397.859 32.058 404.877 22.2443 412.847 13.5607C420.817 4.8771 428.787 0.535293 436.757 0.535293C442.348 0.535293 446.927 2.67646 450.496 6.95878C454.183 11.1222 456.027 16.2966 456.027 22.4822C456.027 30.809 452.459 38.7788 445.321 46.3919C438.303 53.8859 429.084 59.6552 417.665 63.6996Z" fill="white"/>
<path d="M489.875 0C481.786 0 476.017 2.79541 472.567 8.38622C469.236 13.8581 467.571 20.6384 467.571 28.7273C467.571 34.7939 468.166 41.5743 469.355 49.0683C470.545 56.4434 472.21 63.1048 474.351 69.0525C475.422 72.0264 477.266 74.6433 479.883 76.9034C482.5 79.0446 485.83 80.1152 489.875 80.1152C493.919 80.1152 497.19 79.0446 499.688 76.9034C502.305 74.6433 504.149 72.0264 505.22 69.0525C507.361 62.9859 509.026 56.1461 510.216 48.533C511.405 40.8011 512 33.7828 512 27.4783C512 19.8652 510.216 13.3823 506.647 8.02936C503.197 2.67645 497.607 0 489.875 0Z" fill="white"/>
<path d="M489.654 124.902C494.827 124.902 499.323 122.993 503.142 119.174C506.96 115.356 508.87 110.86 508.87 105.686C508.87 100.513 506.96 96.0169 503.142 92.1984C499.323 88.3799 494.827 86.4707 489.654 86.4707C484.481 86.4707 479.985 88.3799 476.166 92.1984C472.348 96.0169 470.438 100.513 470.438 105.686C470.438 110.86 472.348 115.356 476.166 119.174C479.985 122.993 484.481 124.902 489.654 124.902Z" fill="#BF0FB4"/>
</svg>
